<svg id="Layer_1" enable-background="new 0 0 128 128" height="512" viewBox="0 0 128 128" width="512" xmlns="http://www.w3.org/2000/svg"><path d="m109.573 23.253c0-2.687-2.186-4.872-4.872-4.872h-18.453c-1.045-.815-2.356-1.306-3.781-1.306h-6v-.677c0-5.79-4.71-10.5-10.5-10.5s-10.5 4.71-10.5 10.5v.677h-6c-1.425 0-2.736.491-3.781 1.306h-18.453c-2.687 0-4.872 2.186-4.872 4.872v97.978c0 2.686 2.186 4.872 4.872 4.872h77.469c2.687 0 4.872-2.186 4.872-4.872v-97.978z" fill="#e6e7e8"/><path d="m100.768 15.381h-18.833c1.074.947 1.765 2.317 1.765 3.861v6.167h-43.334v-6.167c0-1.544.691-2.914 1.765-3.861h-18.832c-2.138 0-3.872 1.734-3.872 3.872v97.978c0 2.138 1.734 3.872 3.872 3.872h77.469c2.138 0 3.872-1.734 3.872-3.872v-97.978c-.001-2.139-1.734-3.872-3.872-3.872z" fill="#fff"/><path d="m100.768 18.381h-17.155c.047.281.087.566.087.861v6.167h-43.334v-6.167c0-.295.039-.579.087-.861h-17.154c-2.138 0-3.872 1.733-3.872 3.872v94.978c0 2.138 1.734 3.872 3.872 3.872h77.469c2.138 0 3.872-1.734 3.872-3.872v-94.978c-.001-2.139-1.734-3.872-3.872-3.872z" fill="#6dc9f7"/><path d="m95.089 23.659h-11.389v1.749h-43.334v-1.749h-11.389c-.934 0-1.692.757-1.692 1.692v85.781c0 .934.757 1.692 1.692 1.692h66.112c.934 0 1.692-.757 1.692-1.692v-85.781c0-.935-.758-1.692-1.692-1.692z" fill="#fff"/><path d="m55.345 40.193c0-1.202.321-2.327.876-3.301-1.065-1.153-2.586-1.879-4.279-1.879-3.221 0-5.832 2.611-5.832 5.833s2.611 5.833 5.832 5.833c1.965 0 3.699-.975 4.756-2.464-.846-1.122-1.353-2.511-1.353-4.022z" fill="#fa759e"/><path d="m53.141 58.033c0-3.089 1.576-5.807 3.967-7.401-1.372-1.229-3.179-1.983-5.166-1.983-4.283 0-7.754 3.472-7.754 7.754v2.073h8.953z" fill="#fa759e"/><path d="m72.124 35.012c-1.693 0-3.214.726-4.279 1.879.555.975.876 2.1.876 3.301 0 1.511-.507 2.901-1.353 4.021 1.057 1.489 2.791 2.464 4.756 2.464 3.221 0 5.832-2.611 5.832-5.833s-2.611-5.832-5.832-5.832z" fill="#fa759e"/><path d="m72.124 48.649c-1.987 0-3.794.754-5.166 1.983 2.39 1.594 3.967 4.313 3.967 7.401v.443h8.953v-2.073c0-4.282-3.471-7.754-7.754-7.754z" fill="#fa759e"/><ellipse cx="62.033" cy="40.193" fill="#fa759e" rx="6.688" ry="6.688" transform="matrix(.987 -.16 .16 .987 -5.637 10.456)"/><path d="m62.033 49.141c-4.911 0-8.892 3.981-8.892 8.892v2.376h17.783v-2.376c.001-4.911-3.98-8.892-8.891-8.892z" fill="#fa759e"/><path d="m78.533 14.075h-7v-1.677c0-5.247-4.253-9.5-9.5-9.5s-9.5 4.253-9.5 9.5v1.677h-7c-2.853 0-5.167 2.313-5.167 5.167v6.167h43.334v-6.167c0-2.854-2.313-5.167-5.167-5.167z" fill="#0089ef"/><circle cx="62.033" cy="11.825" fill="#fff" r="3"/><g fill="#3a2c60"><path d="m100.768 14.381h-18.453c-1.046-.816-2.356-1.307-3.782-1.307h-6v-.677c0-5.79-4.711-10.5-10.5-10.5s-10.5 4.71-10.5 10.5v.677h-6c-1.426 0-2.736.491-3.782 1.307h-18.452c-2.687 0-4.872 2.186-4.872 4.871v97.979c0 2.687 2.186 4.872 4.872 4.872h77.469c2.687 0 4.872-2.186 4.872-4.872v-75.094c0-.553-.447-1-1-1s-1 .447-1 1v75.094c0 1.584-1.288 2.872-2.872 2.872h-77.469c-1.583 0-2.872-1.288-2.872-2.872v-97.979c0-1.583 1.289-2.871 2.872-2.871h16.776c-.45.856-.708 1.828-.708 2.86v3.418h-10.39c-1.484 0-2.692 1.207-2.692 2.691v85.781c0 1.484 1.208 2.691 2.692 2.691h66.112c1.484 0 2.691-1.207 2.691-2.691v-85.78c0-1.484-1.207-2.691-2.691-2.691h-10.39v-3.418c0-1.032-.258-2.004-.708-2.86h16.777c1.584 0 2.872 1.288 2.872 2.871v5.659c0 .553.447 1 1 1s1-.447 1-1v-5.659c0-2.686-2.186-4.872-4.872-4.872zm-48.235.693c.552 0 1-.447 1-1v-1.677c0-4.687 3.813-8.5 8.5-8.5s8.5 3.813 8.5 8.5v1.677c0 .553.447 1 1 1h7c2.297 0 4.166 1.869 4.166 4.167v5.167h-41.333v-5.167c0-2.298 1.869-4.167 4.167-4.167zm42.556 9.585c.381 0 .691.311.691.691v85.781c0 .381-.311.691-.691.691h-66.112c-.381 0-.692-.311-.692-.691v-85.78c0-.381.311-.691.692-.691h10.389v.749c0 .553.448 1 1 1h43.333c.553 0 1-.447 1-1v-.749h10.39z"/><path d="m104.64 28.252c-.553 0-1 .447-1 1v8.361c0 .553.447 1 1 1s1-.447 1-1v-8.361c0-.553-.447-1-1-1z"/><path d="m44.188 59.476h7.954v.934c0 .553.448 1 1 1h17.784c.553 0 1-.447 1-1v-.934h7.953c.553 0 1-.447 1-1v-2.072c0-4.733-3.777-8.591-8.474-8.741 3.637-.148 6.553-3.145 6.553-6.818 0-3.768-3.064-6.832-6.832-6.832-1.538 0-2.953.518-4.096 1.379-1.41-1.757-3.572-2.887-5.995-2.887s-4.585 1.129-5.995 2.886c-1.143-.861-2.558-1.379-4.096-1.379-3.768 0-6.833 3.064-6.833 6.832 0 3.673 2.916 6.67 6.553 6.818-4.697.149-8.475 4.008-8.475 8.741v2.072c-.001.554.447 1.001.999 1.001zm25.737-.067h-15.784v-1.376c0-4.352 3.54-7.892 7.892-7.892s7.892 3.54 7.892 7.892zm-13.223-13.689c1.383 1.335 3.261 2.16 5.331 2.16s3.947-.826 5.331-2.161c1.173 1.148 2.751 1.875 4.502 1.942-1.87.055-3.59.7-4.989 1.756-1.433-.809-3.083-1.276-4.843-1.276s-3.41.467-4.843 1.276c-1.399-1.056-3.119-1.701-4.989-1.756 1.75-.066 3.327-.794 4.5-1.941zm22.176 10.684v1.072h-6.981c-.152-2.707-1.392-5.122-3.295-6.818 1.027-.634 2.23-1.009 3.523-1.009 3.723 0 6.753 3.03 6.753 6.755zm-6.754-20.391c2.664 0 4.832 2.168 4.832 4.832s-2.168 4.832-4.832 4.832c-1.388 0-2.625-.6-3.503-1.542.693-1.154 1.1-2.5 1.1-3.942 0-1.093-.232-2.131-.645-3.073.83-.688 1.887-1.107 3.048-1.107zm-10.091-1.508c3.136 0 5.688 2.552 5.688 5.688s-2.552 5.688-5.688 5.688-5.688-2.552-5.688-5.688 2.552-5.688 5.688-5.688zm-14.923 6.34c0-2.664 2.168-4.832 4.833-4.832 1.161 0 2.218.419 3.048 1.107-.413.942-.645 1.98-.645 3.073 0 1.442.406 2.788 1.1 3.942-.878.943-2.115 1.542-3.503 1.542-2.665 0-4.833-2.168-4.833-4.832zm-1.922 15.559c0-3.725 3.03-6.755 6.754-6.755 1.293 0 2.495.375 3.523 1.009-1.903 1.697-3.143 4.112-3.295 6.818h-6.982z"/><path d="m62.033 15.824c2.206 0 4-1.794 4-4s-1.795-4-4-4-4 1.794-4 4 1.794 4 4 4zm0-6c1.103 0 2 .897 2 2s-.897 2-2 2-2-.897-2-2 .897-2 2-2z"/><path d="m43.985 72.296h-5.287c-.755 0-1.367.612-1.367 1.367v5.288c0 .755.612 1.367 1.367 1.367h5.287c.755 0 1.367-.612 1.367-1.367v-5.288c0-.755-.612-1.367-1.367-1.367z"/><path d="m43.985 83.841h-5.287c-.755 0-1.367.612-1.367 1.367v5.287c0 .755.612 1.367 1.367 1.367h5.287c.755 0 1.367-.612 1.367-1.367v-5.287c0-.755-.612-1.367-1.367-1.367z"/><path d="m43.985 95.386h-5.287c-.755 0-1.367.612-1.367 1.367v5.288c0 .755.612 1.367 1.367 1.367h5.287c.755 0 1.367-.612 1.367-1.367v-5.288c0-.755-.612-1.367-1.367-1.367z"/><path d="m51.087 79.318c0 .553.448 1 1 1h34.648c.553 0 1-.447 1-1s-.447-1-1-1h-34.648c-.552 0-1 .447-1 1z"/><path d="m86.736 89.863h-34.649c-.552 0-1 .447-1 1s.448 1 1 1h34.648c.553 0 1-.447 1-1s-.447-1-.999-1z"/><path d="m86.736 101.407h-34.649c-.552 0-1 .447-1 1s.448 1 1 1h34.648c.553 0 1-.447 1-1s-.447-1-.999-1z"/></g><path d="m41.264 78.739c-.411 0-.804-.168-1.087-.467l-3.167-3.334c-.571-.601-.546-1.551.054-2.121.603-.569 1.552-.545 2.121.055l2.02 2.127 5.752-6.734c.538-.63 1.485-.704 2.115-.166s.705 1.485.167 2.115l-6.833 8c-.276.323-.676.514-1.101.524-.015.001-.028.001-.041.001z" fill="#fa759e"/><path d="m41.264 90.739c-.411 0-.804-.168-1.087-.467l-3.167-3.334c-.571-.601-.546-1.551.054-2.121.603-.569 1.552-.545 2.121.055l2.02 2.127 5.752-6.734c.538-.63 1.485-.703 2.115-.166.63.538.705 1.485.167 2.115l-6.833 8c-.276.323-.676.514-1.101.524-.015.001-.028.001-.041.001z" fill="#fa759e"/><path d="m41.264 101.739c-.411 0-.804-.168-1.087-.467l-3.167-3.334c-.571-.601-.546-1.551.054-2.121.603-.569 1.552-.545 2.121.055l2.02 2.127 5.752-6.734c.538-.63 1.485-.704 2.115-.166s.705 1.485.167 2.115l-6.833 8c-.276.323-.676.514-1.101.524-.015.001-.028.001-.041.001z" fill="#fa759e"/></svg>