<svg id="Layer_1" enable-background="new 0 0 512 512" height="512" viewBox="0 0 512 512" width="512" xmlns="http://www.w3.org/2000/svg"><g><path d="m245.002 10.998c-32.907 0-64.291 6.504-92.958 18.27l-91.096 388.424c24.869 28.286 56.152 50.786 91.58 65.238l127.42 15.44-.044.146c118.777-16.943 210.1-119.057 210.1-242.516 0-135.311-109.691-245.002-245.002-245.002z" fill="#1c2e7a"/><path d="m471.834 28.816h-318.684c-18.681 7.56-36.212 17.364-52.272 29.065l-61.755 330.95c6.787 10.495 14.35 20.443 22.615 29.753h410.095c22.183 0 40.166-17.983 40.166-40.166v-309.436c.001-22.183-17.982-40.166-40.165-40.166z" fill="#167cc1"/><g fill="#0e62a8"><path d="m61.739 418.583h54.773c.156-1.048-.084-2.154-.764-3.07-6.912-9.31-2.677-17.637.371-21.692 1.204-1.603 1.079-3.814-.268-5.299-29.756-32.797-4.196-64.516 1.502-70.818.688-.76 1.064-1.742 1.064-2.767v-11.978c0-.98-.367-1.917-.987-2.675-3.438-4.199-2.25-7.989-.841-10.272.857-1.389.86-3.151-.063-4.497-3.745-5.461-.832-10 .876-11.942.659-.75 1.014-1.714 1.014-2.713l-.038-50.504c-.001-1.081-.435-2.116-1.19-2.89-52.85-54.165-21.774-112.546-13.969-125.2.872-1.414.827-3.233-.168-4.563-3.465-4.631-2.285-8.327-.695-10.607 1.05-1.506.963-3.57-.252-4.946-1.992-2.255-2.649-4.637-2.609-6.854l-60.371 323.535c6.787 10.495 14.349 20.442 22.615 29.752z"/><path d="m100.878 57.881-.678 3.632c.271-.786.592-1.517.926-2.166.321-.624.452-1.293.441-1.953-.227.165-.462.321-.689.487z"/></g><path d="m471.835 56.185h-113.411c4.644 7.835 7.322 16.967 7.322 26.716 0 28.984-23.581 52.564-52.565 52.564h-28.738c-3.672 0-7.03 1.875-8.982 5.017-9.203 14.8-25.674 24.024-42.987 24.071h-.017c-2.527 0-4.006-1.671-4.548-3.238-.536-1.55-.404-3.754 1.569-5.293 4.891-3.815 9.018-8.443 12.265-13.756.895-1.465 1.016-3.214.331-4.799-.689-1.595-2.116-2.759-3.818-3.116-24.251-5.074-41.851-26.712-41.851-51.45 0-9.749 2.677-18.881 7.322-26.716h-100.53c-62.455 44.402-103.197 117.351-103.197 199.815 0 49.983 14.981 96.461 40.678 135.214h431.156c7.038 0 12.797-5.758 12.797-12.797v-309.436c0-7.037-5.759-12.796-12.796-12.796z" fill="#e9efff"/><path d="m115.851 388.522c-29.756-32.797-4.196-64.516 1.502-70.818.688-.76 1.064-1.742 1.064-2.767v-11.978c0-.98-.367-1.917-.987-2.675-3.438-4.199-2.25-7.989-.841-10.272.857-1.389.86-3.151-.063-4.497-3.745-5.461-.832-10 .876-11.942.659-.75 1.014-1.714 1.014-2.713l-.038-50.504c-.001-1.081-.435-2.116-1.19-2.89-52.85-54.165-21.774-112.546-13.969-125.2.872-1.414.827-3.233-.168-4.563-3.465-4.631-2.285-8.327-.695-10.607 1.05-1.506.963-3.57-.252-4.946-4.021-4.551-2.613-9.623-.977-12.803.327-.635.458-1.317.441-1.988-61.53 44.508-101.568 116.897-101.568 198.641 0 49.983 14.981 96.461 40.679 135.215h76.26c-.031-.969-.394-1.927-1.088-2.693z" fill="#d3dcfb"/><path d="m471.835 56.185h-113.411c4.644 7.835 7.322 16.967 7.322 26.716 0 28.984-23.581 52.564-52.565 52.564h-28.738c-3.672 0-7.03 1.875-8.982 5.017-4.722 7.594-11.366 13.706-19.048 17.877 120.261-5.097 119.318 132.351 228.219 142.793v-232.171c-.001-7.037-5.76-12.796-12.797-12.796z" fill="#9bd8f9"/><path d="m13.041 176.943c37.547 17.911 94.177 23.211 179.33-5.44 12.865-4.329 24.741-7.497 35.76-9.657-.085-.176-.162-.354-.223-.53-.536-1.55-.404-3.754 1.569-5.293 4.891-3.815 9.018-8.443 12.265-13.756.895-1.465 1.016-3.214.331-4.799-.689-1.595-2.117-2.759-3.818-3.116-24.251-5.074-41.851-26.712-41.851-51.45 0-9.749 2.677-18.881 7.322-26.716h-100.53c-41.504 29.506-73.413 71.622-90.155 120.757z" fill="#9bd8f9"/><path d="m102.355 77.096c1.05-1.506.963-3.57-.252-4.946-4.021-4.551-2.613-9.623-.977-12.803.326-.633.457-1.313.441-1.982-40.706 29.445-72.005 71.089-88.527 119.578 21.442 10.228 49.122 16.33 84.769 14.358-24.099-45.54-1.145-88.41 5.409-99.035.872-1.414.827-3.233-.168-4.563-3.465-4.631-2.285-8.327-.695-10.607z" fill="#4fabf7"/><path d="m422.737 218.669h-66.301c-15.027 0-27.322 12.295-27.322 27.322 0 15.027 12.295 27.321 27.322 27.321h66.301c15.027 0 27.321-12.295 27.321-27.321 0-15.027-12.295-27.322-27.321-27.322z" fill="#49d88b"/><path d="m389.586 245.991c0-15.027 12.295-27.322 27.322-27.322h-60.472c-15.027 0-27.322 12.295-27.322 27.321 0 15.027 12.295 27.321 27.322 27.321h60.472c-15.027.001-27.322-12.293-27.322-27.32z" fill="#38c674"/><path d="m302.271 268.789v-133.324h-17.829c-3.672 0-7.03 1.875-8.982 5.017-9.203 14.8-25.674 24.024-42.987 24.071h-.017c-2.527 0-4.006-1.671-4.548-3.238-.536-1.55-.404-3.754 1.569-5.293 4.891-3.815 9.018-8.443 12.265-13.756.895-1.465 1.016-3.214.331-4.799-.689-1.595-2.116-2.759-3.818-3.116-24.251-5.074-41.851-26.712-41.851-51.45 0-.25.015-.495.019-.744h-124.049c-19.762 19.625-36.198 42.592-48.384 67.988v118.644c0 6.254 5.117 11.372 11.372 11.372h255.538c6.254 0 11.371-5.118 11.371-11.372z" fill="#2a428c"/><path d="m117.402 273.573c.659-.75 1.014-1.714 1.014-2.713l-.038-50.504c-.001-1.081-.435-2.116-1.19-2.89-52.85-54.165-21.774-112.546-13.969-125.2.872-1.414.827-3.233-.168-4.563-1.531-2.045-2.153-3.907-2.236-5.547h-28.44c-19.762 19.625-36.198 42.592-48.384 67.988v118.644c0 6.255 5.117 11.372 11.372 11.372h79.351c-.019-2.979 1.582-5.33 2.688-6.587z" fill="#1c2e7a"/><path d="m214.044 216.713.029-.026c-.169-.028.106.021-.563-.083l-.016.009c-5.344-.771-13.545 1.104-21.735-3.67-3.654 5.502-7.95 9.817-11.955 12.928-5.024 3.902-11.225 6.021-17.61 6.021-6.386 0-12.586-2.119-17.61-6.021-4.003-3.109-8.296-7.421-11.949-12.918-7.937 4.651-15.752 2.898-21.285 3.602-.001-.001-.002-.003-.003-.004-.659.089-.738.087-1.032.135l.049.044c-11.115 1.985-19.35 11.978-19.35 23.561v39.868h142.36v-39.868c0-11.577-8.223-21.586-19.33-23.578z" fill="#73c3f9"/><path d="m118.376 253.107c0-7.122 4.286-13.561 10.872-16.273 6.905-2.843 12.314-6.362 16.572-10.083-.415-.288-.835-.568-1.235-.879-4.003-3.108-8.296-7.421-11.949-12.918-7.937 4.651-15.752 2.898-21.285 3.602-.001-.002-.003-.003-.003-.004-.659.089-.738.087-1.032.135l.049.044c-11.115 1.985-19.351 11.978-19.351 23.561v39.868h27.362z" fill="#4fabf7"/><g><path d="m61.851 316.575h-4.482c-4.199 0-7.603-3.404-7.603-7.603s3.404-7.602 7.603-7.602h4.482c4.199 0 7.602 3.404 7.602 7.602s-3.403 7.603-7.602 7.603z" fill="#ff4155"/></g><g><path d="m297.203 316.575h-4.482c-4.199 0-7.603-3.404-7.603-7.603s3.404-7.602 7.603-7.602h4.482c4.199 0 7.603 3.404 7.603 7.602s-3.404 7.603-7.603 7.603z" fill="#ff4155"/></g><g><path d="m36.657 316.575h-4.482c-4.199 0-7.602-3.404-7.602-7.603s3.404-7.602 7.602-7.602h4.482c4.199 0 7.602 3.404 7.602 7.602s-3.403 7.603-7.602 7.603z" fill="#ff4155"/></g><g><path d="m270.312 316.575h-116.679c-4.199 0-7.602-3.404-7.602-7.603s3.404-7.602 7.602-7.602h116.678c4.199 0 7.603 3.404 7.603 7.602s-3.404 7.603-7.602 7.603z" fill="#bec8f7"/></g><g><path d="m153.633 316.575h-70.515c-4.199 0-7.603-3.404-7.603-7.603s3.404-7.602 7.603-7.602h70.515c4.199 0 7.603 3.404 7.603 7.602s-3.404 7.603-7.603 7.603z" fill="#ff4155"/></g><g><g><path d="m430.868 200.046c-4.199 0-7.602-3.404-7.602-7.602v-32.704c0-3.327 2.163-6.268 5.34-7.258 3.175-.988 6.627.2 8.518 2.938l8.877 12.855-.082-8.524c-.04-4.198 3.33-7.635 7.529-7.675h.075c4.165 0 7.56 3.355 7.6 7.529l.306 31.66c0 3.789-2.274 6.996-5.658 8.053-3.346 1.046-6.98-.255-9.043-3.234l-8.257-11.957v8.315c-.001 4.2-3.405 7.604-7.603 7.604z" fill="#3c58a0"/></g></g><g><g><path d="m334.124 200.055c-3.053 0-6.326-.887-9.638-2.651-3.706-1.973-5.11-6.578-3.137-10.284s6.578-5.111 10.284-3.136c.528.281 1.003.478 1.398.612v-24.917c0-4.199 3.404-7.602 7.603-7.602s7.603 3.404 7.603 7.602v26.186c0 5.196-2.79 9.974-7.282 12.468-2.072 1.15-4.381 1.722-6.831 1.722z" fill="#3c58a0"/></g></g><g><g><path d="m410.37 200.046c-4.199 0-7.603-3.404-7.603-7.602v-32.764c0-4.199 3.404-7.602 7.603-7.602s7.603 3.404 7.603 7.602v32.764c0 4.198-3.404 7.602-7.603 7.602z" fill="#3c58a0"/></g></g><g><path d="m375.31 200.046c-13.225 0-23.984-10.76-23.984-23.985s10.759-23.984 23.984-23.984 23.985 10.759 23.985 23.984c-.001 13.225-10.76 23.985-23.985 23.985zm0-32.765c-4.841 0-8.78 3.938-8.78 8.78 0 4.841 3.938 8.78 8.78 8.78 4.841 0 8.78-3.939 8.78-8.78-.001-4.841-3.939-8.78-8.78-8.78z" fill="#3c58a0"/></g><g><path d="m153.634 324.253c-4.199 0-7.603-3.404-7.603-7.602v-15.106c0-4.199 3.404-7.603 7.603-7.603s7.602 3.404 7.602 7.603v15.106c0 4.199-3.404 7.602-7.602 7.602z" fill="#ff7186"/></g><path d="m395.304 384.31c-5.782-5.946-15.377-6.08-21.322-.298l7.274-7.073c5.778-5.618 6.761-14.759 1.871-21.166-5.828-7.637-16.913-8.273-23.596-1.774l2.284-2.221c5.778-5.618 6.761-14.759 1.872-21.165-5.828-7.637-16.912-8.274-23.596-1.774l36.01-35.016c5.778-5.618 6.761-14.759 1.871-21.165-5.828-7.637-16.913-8.273-23.596-1.774l-60.104 58.445c-1.184 1.151-3.085 1.095-4.192-.131-2.858-3.162-7.323-7.968-15.313-7.585-17.495.839-32.729 12.224-38.488 28.77-5.097 15.273-.741-2.805-8.727 53.645-.484 3.755-2.226 7.236-4.94 9.876l-70.506 68.857c28.65 11.75 60.012 18.244 92.896 18.244 12.213 0 24.213-.905 35.946-2.632l16.794-16.331c7.928-7.709 25.737-4.856 47.308-25.832 4.779-4.646 38.537-37.473 50.954-49.547 5.946-5.781 6.08-15.377.298-21.323z" fill="#f9ba8f"/><path d="m374.134 268.543 5.133 5.279c2.948 3.032 2.88 7.924-.152 10.872l-9.915 9.641c-3.032 2.948-7.924 2.88-10.872-.152l-5.133-5.279c-2.948-3.032-2.88-7.924.152-10.872l9.915-9.641c3.032-2.948 7.924-2.879 10.872.152z" fill="#e9efff"/><path d="m265.677 346.528c2.927 3.01 7.74 3.078 10.75.15l17.845-17.352c-1.184 1.151-3.085 1.095-4.192-.131-2.182-2.414-5.307-5.779-10.215-7.069l-14.038 13.651c-3.009 2.928-3.077 7.741-.15 10.751z" fill="#fcad6d"/><path d="m309.874 268.789v-136.365c0-4.199-3.404-7.602-7.602-7.602s-7.603 3.404-7.603 7.602v136.365c0 2.043-1.726 3.769-3.769 3.769h-255.538c-2.043 0-3.769-1.726-3.769-3.769v-133.189c-5.813 10.281-10.904 21.023-15.205 32.159v101.029c0 10.462 8.512 18.974 18.974 18.974h255.538c10.462.001 18.974-8.511 18.974-18.973z" fill="#3c58a0"/><path d="m118.037 272.558h-82.675c-2.043 0-3.77-1.726-3.77-3.769v-133.189c-5.813 10.281-10.904 21.023-15.205 32.159v101.029c0 10.462 8.512 18.974 18.974 18.974h81.861c-.004-.788-.233-1.571-.698-2.248-3.745-5.461-.832-10 .876-11.942.27-.304.473-.65.637-1.014z" fill="#2a428c"/><path d="m199.464 89.759c4.199 0 7.602-3.404 7.602-7.603s-3.404-7.603-7.602-7.603h-119.094c-5.33 4.839-10.435 9.919-15.321 15.205h134.415z" fill="#3c58a0"/><path d="m65.05 89.759h38.765c-.06-.731-.307-1.445-.764-2.056-3.465-4.631-2.285-8.327-.695-10.607.529-.759.768-1.659.721-2.542h-22.707c-5.33 4.839-10.434 9.919-15.32 15.205z" fill="#2a428c"/><path d="m313.181 28.816h-64.212c-29.747 0-54.085 24.338-54.085 54.085 0 25.971 18.554 47.812 43.06 52.938 2.545.533 3.858 3.415 2.501 5.634-3.053 4.995-7.015 9.538-11.903 13.35-4.736 3.694-2.072 11.267 3.934 11.251 18.122-.05 34.896-9.708 44.273-24.789 1.656-2.664 4.554-4.299 7.692-4.299h28.739c29.747 0 54.085-24.338 54.085-54.085.001-29.747-24.337-54.085-54.084-54.085z" fill="#ffdd40"/><path d="m250.883 82.9c0-29.747 24.338-54.085 54.085-54.085h-55.999c-29.747 0-54.085 24.338-54.085 54.085 0 25.971 18.554 47.812 43.06 52.939 2.545.532 3.858 3.415 2.502 5.633-3.053 4.995-7.015 9.538-11.903 13.351-4.736 3.694-2.072 11.267 3.934 11.25 18.122-.05 34.896-9.708 44.273-24.789 1.657-2.664 4.555-4.299 7.692-4.299h20.526c-29.747.001-54.085-24.338-54.085-54.085z" fill="#ffb332"/><g><path d="m281.075 65.174h-37.686c-4.199 0-7.603-3.404-7.603-7.603s3.404-7.603 7.603-7.603h37.686c4.199 0 7.603 3.404 7.603 7.603-.001 4.199-3.405 7.603-7.603 7.603z" fill="#fcf2c8"/></g><g><path d="m316.372 89.759h-72.984c-4.199 0-7.603-3.404-7.603-7.602s3.404-7.603 7.603-7.603h72.984c4.199 0 7.602 3.404 7.602 7.603s-3.403 7.602-7.602 7.602z" fill="#fcf2c8"/></g><g><path d="m316.372 114.345h-72.984c-4.199 0-7.603-3.404-7.603-7.603s3.404-7.603 7.603-7.603h72.984c4.199 0 7.602 3.404 7.602 7.603s-3.403 7.603-7.602 7.603z" fill="#fcf2c8"/></g><path d="m131.677 213.485c3.845 6.216 8.548 11.029 12.907 14.414 5.024 3.902 11.224 6.021 17.61 6.021 6.385 0 12.586-2.119 17.61-6.021 4.362-3.387 9.068-8.204 12.914-14.426-2.255-1.176-4.519-2.827-6.729-5.153l.011-.013c-3.742-3.935-4.688-7.094-7.434-11.886-10.101 5.291-22.361 5.439-32.744 0-2.886 5.036-3.76 8.023-7.434 11.885l.011.013c-2.224 2.342-4.481 3.994-6.722 5.166z" fill="#fcad6d"/><path d="m161.19 200.416c-5.258-.148-10.517-1.454-15.368-3.994-2.886 5.036-3.76 8.023-7.434 11.885l.011.013c-2.225 2.341-4.482 3.992-6.722 5.165 3.827 6.187 8.504 10.982 12.846 14.364 13.874-11.351 16.34-25.083 16.667-27.433z" fill="#fd995b"/><path d="m155.529 103.742c-20.015 2.727-21.917 14.075-21.926 18.239-.002.873-.486 1.682-1.271 2.064-10.411 5.065-4.798 29.474-4.798 29.474 1.046.07 2.614.967 3.43 1.362.2-1.244.526-2.468.987-3.652.351-.902.79-1.813 1.339-2.674.952-1.494 1.386-3.256 1.257-5.018-.374-5.092-.668-14.653 6.054-17.677 5.695-2.562 12.68-1.079 17.134.403 2.893.962 6.027.962 8.92 0 4.455-1.481 11.44-2.965 17.134-.403 6.703 3.016 6.427 12.528 6.057 17.634-.129 1.775.293 3.555 1.253 5.061.566.888 1.016 1.831 1.373 2.761.443 1.157.759 2.352.954 3.565 1.029-.498 2.973-1.515 4.231-1.337.154-5.337.647-11.091.647-11.091 5.93-29.051-21.224-41.648-42.775-38.711z" fill="#a05838"/><path d="m163.088 103.355c-2.554-.072-5.094.05-7.559.386-20.015 2.727-21.917 14.075-21.926 18.238-.002.873-.486 1.682-1.271 2.064-10.411 5.065-4.798 29.474-4.798 29.474 1.045.07 2.614.967 3.43 1.362.2-1.244.526-2.468.987-3.652.351-.902.79-1.813 1.338-2.674.952-1.494 1.386-3.256 1.257-5.018-.374-5.092-.668-14.653 6.054-17.677 5.695-2.562 12.68-1.079 17.134.403 1.439.479 2.938.718 4.437.721-.193-.327-.381-.655-.601-.972-9.926-14.278.778-22.136 1.518-22.655z" fill="#823c26"/><path d="m199.432 154.237c-1.559-1.429-4.664-.704-6.007.17.294 1.832.311 3.706.057 5.556l-1.584 11.54c0 .93-.029 1.843-.083 2.74 3.863 1.165 5.783-2.303 6.106-4.683.139-1.025.367-2.035.682-3.02 1.027-3.211 4.734-8.724.829-12.303z" fill="#fd995b"/><path d="m124.957 154.237c1.559-1.429 4.664-.704 6.007.17-.294 1.832-.311 3.706-.057 5.556l1.585 11.54c0 .93.029 1.843.083 2.74-3.863 1.165-5.782-2.303-6.106-4.683-.139-1.025-.367-2.035-.682-3.02-1.028-3.211-4.736-8.724-.83-12.303z" fill="#fd995b"/><path d="m192.945 150.842c-.357-.93-.806-1.873-1.373-2.761-.959-1.505-1.381-3.286-1.253-5.061.37-5.106.172-15.091-6.531-18.107-5.694-2.562-12.679-1.079-17.134.402-2.893.962-6.028.962-8.921 0-4.455-1.481-11.439-2.965-17.134-.402-6.722 3.024-6.902 13.059-6.528 18.151.129 1.762-.304 3.524-1.256 5.017-.549.861-.988 1.772-1.339 2.674-1.139 2.926-1.471 6.099-1.044 9.205l1.585 11.542c0 16.593 8.858 27.872 16.392 33.723 3.933 3.054 8.786 4.713 13.785 4.713s9.852-1.659 13.785-4.713c7.535-5.851 16.392-17.129 16.392-33.723l1.584-11.54c.423-3.075.103-6.217-1.01-9.12z" fill="#f9ba8f"/><g><path d="m171.16 205.225c-7.534-5.851-16.392-17.129-16.392-33.723l-1.585-11.542c-.427-3.107-.094-6.28 1.044-9.205.351-.902.79-1.813 1.339-2.674.952-1.494 1.386-3.256 1.256-5.018-.337-4.592-.207-13.187 4.749-17.052-1.298-.057-2.59-.282-3.837-.697-4.455-1.481-11.439-2.965-17.134-.403-6.722 3.025-6.902 13.059-6.528 18.151.129 1.762-.304 3.524-1.256 5.018-.549.861-.988 1.772-1.339 2.674-1.139 2.926-1.471 6.099-1.044 9.205l1.585 11.542c0 16.593 8.858 27.872 16.392 33.723 3.933 3.054 8.786 4.713 13.784 4.713 4.023 0 7.944-1.091 11.375-3.104-.831-.486-1.642-1.012-2.409-1.608z" fill="#fcad6d"/></g><path d="m152.107 482.758c28.65 11.75 60.012 18.244 92.896 18.244 12.213 0 24.213-.905 35.946-2.632l16.794-16.331c-81.355 3.328-75.13-68.139-75.13-68.139z" fill="#fcad6d"/></g></svg>